<svg xmlns="http://www.w3.org/2000/svg" fill="none" viewBox="0 0 19 17">
  <path fill="#5C5F5E" fill-rule="evenodd" d="M17.8125 14.2212c0 .3146-.2672.5721-.5937.5721H1.78125c-.32656 0-.59375-.2575-.59375-.5721V2.77885c0-.31467.26719-.57212.59375-.57212H17.2188c.3265 0 .5937.25745.5937.57212V14.2212Zm0-13.1587H1.1875C.52844 1.0625 0 1.57168 0 2.20673V14.7933c0 .6293.52844 1.1442 1.1875 1.1442h16.625c.6531 0 1.1875-.5149 1.1875-1.1442V2.20673c0-.63505-.5344-1.14423-1.1875-1.14423Zm-4.75 3.43269h2.375v2.28846h-2.375V4.49519ZM11.875 7.92788h4.75V3.35096h-4.75v4.57692Zm-9.5 2.28842h8.3125V9.07212H2.375v1.14418Zm0 2.2885h8.3125v-1.1442H2.375v1.1442Z" clip-rule="evenodd"/>
</svg>