<svg xmlns="http://www.w3.org/2000/svg" fill="none" viewBox="0 0 19 19">
  <path fill="#5C5F5E" d="M2.77087 17.4167c-.31666 0-.59375-.1188-.83125-.3563-.2375-.2375-.35625-.5146-.35625-.8312V6.72917c0-.31667.11875-.59375.35625-.83125.2375-.2375.51459-.35625.83125-.35625H7.4615V2.77083c0-.31666.11875-.59375.35625-.83125.2375-.2375.51458-.35625.83125-.35625h1.7219c.3166 0 .5937.11875.8312.35625.2375.2375.3563.51459.3563.83125v2.77084h4.6708c.3167 0 .5938.11875.8313.35625.2375.2375.3562.51458.3562.83125v9.50003c0 .3166-.1187.5937-.3562.8312-.2375.2375-.5146.3563-.8313.3563H2.77087Zm0-1.1875H16.2292V6.72917h-4.6708c0 .36944-.1221.65972-.3662.87083-.2441.21111-.5508.31667-.9203.31667H8.72817c-.35625 0-.65643-.10556-.90053-.31667-.24409-.21111-.36614-.50139-.36614-.87083H2.77087v9.50003Zm1.82084-2.1177h4.7302v-.2771c0-.2375-.05937-.4486-.17812-.6334-.11875-.1847-.27049-.31-.45521-.376-.42222-.1451-.75208-.2408-.98958-.287-.2375-.0462-.4684-.0693-.69271-.0693-.25069 0-.51788.0297-.80156.0891-.28368.0594-.60365.1485-.9599.2672-.19791.066-.35625.1913-.475.376-.11875.1848-.17812.3959-.17812.6334v.2771Zm6.64999-1.3261h3.3646v-.9896h-3.3646v.9896Zm-4.23541-.9896c.30347 0 .55747-.1055.76198-.3166.20451-.2111.30677-.4618.30677-.7521 0-.3035-.10226-.5575-.30677-.762-.20451-.20451-.45851-.30677-.76198-.30677-.29028 0-.54097.10226-.75208.30677-.21111.2045-.31667.4585-.31667.762 0 .2903.10556.541.31667.7521.21111.2111.4618.3166.75208.3166Zm4.23541-1.2468h3.3646v-.98963h-3.3646v.98963ZM8.649 6.72917h1.7219V2.77083H8.649v3.95834Z"/>
</svg>