<svg xmlns="http://www.w3.org/2000/svg" fill="none" viewBox="0 0 19 19">
  <path fill="#5C5F5E" d="M4.35413 17.4167c-.32987 0-.61025-.1155-.84115-.3464s-.34635-.5113-.34635-.8411V7.63959c0-.32986.11545-.61024.34635-.84115.2309-.2309.51128-.34635.84115-.34635h1.38541v-1.9c0-1.04236.36615-1.92969 1.09844-2.66198C7.57027 1.15782 8.4576.79167 9.49996.79167c1.04234 0 1.92964.36615 2.66194 1.09844.7323.73229 1.0985 1.61962 1.0985 2.66198v1.9h1.3854c.3299 0 .6102.11545.8411.34635.2309.23091.3464.51129.3464.84115v8.58961c0 .3298-.1155.6102-.3464.8411s-.5112.3464-.8411.3464H4.35413Zm0-1.1875H14.6458V7.63959H4.35413v8.58961Zm5.14583-2.7709c.42222 0 .78174-.1451 1.07864-.4354.2969-.2903.4453-.6399.4453-1.0489 0-.3959-.1484-.7554-.4453-1.0787-.2969-.3232-.65642-.4849-1.07864-.4849-.42222 0-.78177.1617-1.07865.4849-.29687.3233-.44531.6828-.44531 1.0787 0 .409.14844.7586.44531 1.0489.29688.2903.65643.4354 1.07865.4354ZM6.92704 6.45209h5.14586v-1.9c0-.7125-.2507-1.31945-.7521-1.82083-.5014-.50139-1.1083-.75209-1.82084-.75209-.7125 0-1.31945.2507-1.82083.75209-.50139.50138-.75209 1.10833-.75209 1.82083v1.9Z"/>
</svg>